<mxfile host="app.diagrams.net" modified="2020-08-27T09:28:33.890Z" agent="5.0 (Macintosh; Intel Mac OS X 10_15_4) AppleWebKit/537.36 (KHTML, like Gecko) Chrome/84.0.4147.105 Safari/537.36" etag="2ul8hW6l553x6mY-je1Q" version="13.6.5" type="github">
  <diagram id="31b32b95-0358-9bc7-6ba0-a27c054ed1a7" name="Page-1">
    <mxGraphModel dx="1373" dy="868" grid="1" gridSize="10" guides="1" tooltips="1" connect="1" arrows="1" fold="1" page="1" pageScale="1" pageWidth="827" pageHeight="1169" background="#ffffff" math="0" shadow="0">
      <root>
        <mxCell id="0" />
        <mxCell id="1" parent="0" />
        <mxCell id="v-lnHGCpF3rEzfZxBYqz-95" value="" style="rounded=1;whiteSpace=wrap;html=1;dashed=1;" vertex="1" parent="1">
          <mxGeometry x="60" y="100" width="340" height="350" as="geometry" />
        </mxCell>
        <mxCell id="v-lnHGCpF3rEzfZxBYqz-96" value="" style="rounded=1;whiteSpace=wrap;html=1;dashed=1;" vertex="1" parent="1">
          <mxGeometry x="450" y="100" width="350" height="350" as="geometry" />
        </mxCell>
        <mxCell id="v-lnHGCpF3rEzfZxBYqz-97" value="" style="rounded=1;whiteSpace=wrap;html=1;dashed=1;" vertex="1" parent="1">
          <mxGeometry x="60" y="510" width="220" height="350" as="geometry" />
        </mxCell>
        <mxCell id="v-lnHGCpF3rEzfZxBYqz-98" value="" style="rounded=1;whiteSpace=wrap;html=1;dashed=1;" vertex="1" parent="1">
          <mxGeometry x="320" y="510" width="220" height="350" as="geometry" />
        </mxCell>
        <mxCell id="v-lnHGCpF3rEzfZxBYqz-99" value="" style="rounded=1;whiteSpace=wrap;html=1;dashed=1;" vertex="1" parent="1">
          <mxGeometry x="620" y="510" width="190" height="130" as="geometry" />
        </mxCell>
        <mxCell id="v-lnHGCpF3rEzfZxBYqz-100" value="Mongo" style="shape=cylinder2;whiteSpace=wrap;html=1;boundedLbl=1;backgroundOutline=1;size=15;dashed=1;" vertex="1" parent="1">
          <mxGeometry x="640" y="545" width="60" height="80" as="geometry" />
        </mxCell>
        <mxCell id="v-lnHGCpF3rEzfZxBYqz-101" value="数据层" style="text;html=1;resizable=0;autosize=1;align=center;verticalAlign=middle;points=[];fillColor=none;strokeColor=none;rounded=0;dashed=1;" vertex="1" parent="1">
          <mxGeometry x="740" y="605" width="50" height="20" as="geometry" />
        </mxCell>
        <mxCell id="v-lnHGCpF3rEzfZxBYqz-102" value="应用层" style="text;html=1;resizable=0;autosize=1;align=center;verticalAlign=middle;points=[];fillColor=none;strokeColor=none;rounded=0;dashed=1;" vertex="1" parent="1">
          <mxGeometry x="330" y="360" width="50" height="20" as="geometry" />
        </mxCell>
        <mxCell id="v-lnHGCpF3rEzfZxBYqz-103" value="业务逻辑层（Node）" style="text;html=1;resizable=0;autosize=1;align=center;verticalAlign=middle;points=[];fillColor=none;strokeColor=none;rounded=0;dashed=1;" vertex="1" parent="1">
          <mxGeometry x="472.5" y="120" width="130" height="20" as="geometry" />
        </mxCell>
        <mxCell id="v-lnHGCpF3rEzfZxBYqz-104" value="核心层（Python）" style="text;html=1;resizable=0;autosize=1;align=center;verticalAlign=middle;points=[];fillColor=none;strokeColor=none;rounded=0;dashed=1;" vertex="1" parent="1">
          <mxGeometry x="435" y="525" width="110" height="20" as="geometry" />
        </mxCell>
        <mxCell id="v-lnHGCpF3rEzfZxBYqz-105" value="执行层" style="text;html=1;resizable=0;autosize=1;align=center;verticalAlign=middle;points=[];fillColor=none;strokeColor=none;rounded=0;dashed=1;" vertex="1" parent="1">
          <mxGeometry x="205" y="525" width="50" height="20" as="geometry" />
        </mxCell>
        <mxCell id="v-lnHGCpF3rEzfZxBYqz-121" style="edgeStyle=orthogonalEdgeStyle;rounded=0;orthogonalLoop=1;jettySize=auto;html=1;entryX=0;entryY=0.5;entryDx=0;entryDy=0;" edge="1" parent="1" source="v-lnHGCpF3rEzfZxBYqz-109" target="v-lnHGCpF3rEzfZxBYqz-113">
          <mxGeometry relative="1" as="geometry">
            <Array as="points">
              <mxPoint x="350" y="230" />
              <mxPoint x="350" y="240" />
            </Array>
          </mxGeometry>
        </mxCell>
        <mxCell id="v-lnHGCpF3rEzfZxBYqz-109" value="用例管理" style="rounded=0;whiteSpace=wrap;html=1;fillColor=#ffe6cc;strokeColor=#d79b00;" vertex="1" parent="1">
          <mxGeometry x="120" y="210" width="90" height="40" as="geometry" />
        </mxCell>
        <mxCell id="v-lnHGCpF3rEzfZxBYqz-128" style="edgeStyle=orthogonalEdgeStyle;rounded=0;orthogonalLoop=1;jettySize=auto;html=1;exitX=1;exitY=0.5;exitDx=0;exitDy=0;" edge="1" parent="1" source="v-lnHGCpF3rEzfZxBYqz-113" target="v-lnHGCpF3rEzfZxBYqz-100">
          <mxGeometry relative="1" as="geometry">
            <Array as="points">
              <mxPoint x="770" y="240" />
              <mxPoint x="770" y="585" />
            </Array>
          </mxGeometry>
        </mxCell>
        <mxCell id="v-lnHGCpF3rEzfZxBYqz-147" style="edgeStyle=orthogonalEdgeStyle;rounded=0;orthogonalLoop=1;jettySize=auto;html=1;exitX=0.5;exitY=1;exitDx=0;exitDy=0;entryX=0.5;entryY=0;entryDx=0;entryDy=0;" edge="1" parent="1" source="v-lnHGCpF3rEzfZxBYqz-113" target="v-lnHGCpF3rEzfZxBYqz-146">
          <mxGeometry relative="1" as="geometry" />
        </mxCell>
        <mxCell id="v-lnHGCpF3rEzfZxBYqz-113" value="增删改查" style="rounded=0;whiteSpace=wrap;html=1;" vertex="1" parent="1">
          <mxGeometry x="512.5" y="220" width="90" height="40" as="geometry" />
        </mxCell>
        <mxCell id="v-lnHGCpF3rEzfZxBYqz-133" style="edgeStyle=orthogonalEdgeStyle;rounded=0;orthogonalLoop=1;jettySize=auto;html=1;" edge="1" parent="1" source="v-lnHGCpF3rEzfZxBYqz-120" target="v-lnHGCpF3rEzfZxBYqz-132">
          <mxGeometry relative="1" as="geometry">
            <Array as="points">
              <mxPoint x="558" y="480" />
              <mxPoint x="430" y="480" />
            </Array>
          </mxGeometry>
        </mxCell>
        <mxCell id="v-lnHGCpF3rEzfZxBYqz-148" style="edgeStyle=orthogonalEdgeStyle;rounded=0;orthogonalLoop=1;jettySize=auto;html=1;exitX=1;exitY=0.5;exitDx=0;exitDy=0;entryX=0;entryY=0.5;entryDx=0;entryDy=0;" edge="1" parent="1" source="v-lnHGCpF3rEzfZxBYqz-120" target="v-lnHGCpF3rEzfZxBYqz-146">
          <mxGeometry relative="1" as="geometry" />
        </mxCell>
        <mxCell id="v-lnHGCpF3rEzfZxBYqz-120" value="指令转换" style="rounded=0;whiteSpace=wrap;html=1;fillColor=#ffe6cc;strokeColor=#d79b00;" vertex="1" parent="1">
          <mxGeometry x="512.5" y="320" width="90" height="40" as="geometry" />
        </mxCell>
        <mxCell id="v-lnHGCpF3rEzfZxBYqz-123" style="edgeStyle=orthogonalEdgeStyle;rounded=0;orthogonalLoop=1;jettySize=auto;html=1;entryX=0;entryY=0.5;entryDx=0;entryDy=0;exitX=1;exitY=0.5;exitDx=0;exitDy=0;" edge="1" parent="1" source="v-lnHGCpF3rEzfZxBYqz-122" target="v-lnHGCpF3rEzfZxBYqz-113">
          <mxGeometry relative="1" as="geometry">
            <Array as="points">
              <mxPoint x="350" y="130" />
              <mxPoint x="350" y="240" />
            </Array>
          </mxGeometry>
        </mxCell>
        <mxCell id="v-lnHGCpF3rEzfZxBYqz-122" value="项目管理" style="rounded=0;whiteSpace=wrap;html=1;" vertex="1" parent="1">
          <mxGeometry x="120" y="110" width="90" height="40" as="geometry" />
        </mxCell>
        <mxCell id="v-lnHGCpF3rEzfZxBYqz-125" style="edgeStyle=orthogonalEdgeStyle;rounded=0;orthogonalLoop=1;jettySize=auto;html=1;" edge="1" parent="1" source="v-lnHGCpF3rEzfZxBYqz-124" target="v-lnHGCpF3rEzfZxBYqz-113">
          <mxGeometry relative="1" as="geometry">
            <Array as="points">
              <mxPoint x="350" y="180" />
              <mxPoint x="350" y="240" />
            </Array>
          </mxGeometry>
        </mxCell>
        <mxCell id="v-lnHGCpF3rEzfZxBYqz-124" value="权限管理" style="rounded=0;whiteSpace=wrap;html=1;" vertex="1" parent="1">
          <mxGeometry x="120" y="160" width="90" height="40" as="geometry" />
        </mxCell>
        <mxCell id="v-lnHGCpF3rEzfZxBYqz-129" style="edgeStyle=orthogonalEdgeStyle;rounded=0;orthogonalLoop=1;jettySize=auto;html=1;exitX=1;exitY=0.5;exitDx=0;exitDy=0;entryX=0;entryY=0.5;entryDx=0;entryDy=0;" edge="1" parent="1" source="v-lnHGCpF3rEzfZxBYqz-126" target="v-lnHGCpF3rEzfZxBYqz-120">
          <mxGeometry relative="1" as="geometry">
            <Array as="points">
              <mxPoint x="490" y="410" />
              <mxPoint x="490" y="340" />
            </Array>
          </mxGeometry>
        </mxCell>
        <mxCell id="v-lnHGCpF3rEzfZxBYqz-126" value="用例执行" style="rounded=0;whiteSpace=wrap;html=1;fillColor=#ffe6cc;strokeColor=#d79b00;" vertex="1" parent="1">
          <mxGeometry x="120" y="390" width="90" height="40" as="geometry" />
        </mxCell>
        <mxCell id="v-lnHGCpF3rEzfZxBYqz-131" style="edgeStyle=orthogonalEdgeStyle;rounded=0;orthogonalLoop=1;jettySize=auto;html=1;entryX=0;entryY=0.5;entryDx=0;entryDy=0;" edge="1" parent="1" source="v-lnHGCpF3rEzfZxBYqz-130" target="v-lnHGCpF3rEzfZxBYqz-113">
          <mxGeometry relative="1" as="geometry">
            <Array as="points">
              <mxPoint x="350" y="280" />
              <mxPoint x="350" y="240" />
            </Array>
          </mxGeometry>
        </mxCell>
        <mxCell id="v-lnHGCpF3rEzfZxBYqz-130" value="指令转换规则管理" style="rounded=0;whiteSpace=wrap;html=1;" vertex="1" parent="1">
          <mxGeometry x="120" y="260" width="90" height="40" as="geometry" />
        </mxCell>
        <mxCell id="v-lnHGCpF3rEzfZxBYqz-135" style="edgeStyle=orthogonalEdgeStyle;rounded=0;orthogonalLoop=1;jettySize=auto;html=1;entryX=0.5;entryY=0;entryDx=0;entryDy=0;" edge="1" parent="1" source="v-lnHGCpF3rEzfZxBYqz-132" target="v-lnHGCpF3rEzfZxBYqz-134">
          <mxGeometry relative="1" as="geometry" />
        </mxCell>
        <mxCell id="v-lnHGCpF3rEzfZxBYqz-132" value="API&lt;br&gt;（组装脚本、启动、停止）" style="rounded=0;whiteSpace=wrap;html=1;fillColor=#ffe6cc;strokeColor=#d79b00;" vertex="1" parent="1">
          <mxGeometry x="347.5" y="580" width="165" height="40" as="geometry" />
        </mxCell>
        <mxCell id="v-lnHGCpF3rEzfZxBYqz-137" style="edgeStyle=orthogonalEdgeStyle;rounded=0;orthogonalLoop=1;jettySize=auto;html=1;entryX=1;entryY=0.5;entryDx=0;entryDy=0;" edge="1" parent="1" source="v-lnHGCpF3rEzfZxBYqz-134" target="v-lnHGCpF3rEzfZxBYqz-136">
          <mxGeometry relative="1" as="geometry" />
        </mxCell>
        <mxCell id="v-lnHGCpF3rEzfZxBYqz-134" value="Helium" style="rounded=0;whiteSpace=wrap;html=1;fillColor=#ffe6cc;strokeColor=#d79b00;" vertex="1" parent="1">
          <mxGeometry x="347.5" y="680" width="165" height="40" as="geometry" />
        </mxCell>
        <mxCell id="v-lnHGCpF3rEzfZxBYqz-139" style="edgeStyle=orthogonalEdgeStyle;rounded=0;orthogonalLoop=1;jettySize=auto;html=1;entryX=0.5;entryY=0;entryDx=0;entryDy=0;" edge="1" parent="1" source="v-lnHGCpF3rEzfZxBYqz-136" target="v-lnHGCpF3rEzfZxBYqz-138">
          <mxGeometry relative="1" as="geometry" />
        </mxCell>
        <mxCell id="v-lnHGCpF3rEzfZxBYqz-136" value="远程桌面" style="rounded=0;whiteSpace=wrap;html=1;" vertex="1" parent="1">
          <mxGeometry x="87.5" y="585" width="165" height="40" as="geometry" />
        </mxCell>
        <mxCell id="v-lnHGCpF3rEzfZxBYqz-144" style="edgeStyle=orthogonalEdgeStyle;rounded=0;orthogonalLoop=1;jettySize=auto;html=1;" edge="1" parent="1" source="v-lnHGCpF3rEzfZxBYqz-138" target="v-lnHGCpF3rEzfZxBYqz-141">
          <mxGeometry relative="1" as="geometry" />
        </mxCell>
        <mxCell id="v-lnHGCpF3rEzfZxBYqz-138" value="分配示例" style="rounded=0;whiteSpace=wrap;html=1;" vertex="1" parent="1">
          <mxGeometry x="87.5" y="680" width="165" height="40" as="geometry" />
        </mxCell>
        <mxCell id="v-lnHGCpF3rEzfZxBYqz-140" style="edgeStyle=orthogonalEdgeStyle;rounded=0;orthogonalLoop=1;jettySize=auto;html=1;exitX=0.5;exitY=1;exitDx=0;exitDy=0;" edge="1" parent="1" source="v-lnHGCpF3rEzfZxBYqz-138" target="v-lnHGCpF3rEzfZxBYqz-138">
          <mxGeometry relative="1" as="geometry" />
        </mxCell>
        <mxCell id="v-lnHGCpF3rEzfZxBYqz-150" style="edgeStyle=orthogonalEdgeStyle;rounded=0;orthogonalLoop=1;jettySize=auto;html=1;entryX=0.25;entryY=1;entryDx=0;entryDy=0;" edge="1" parent="1" source="v-lnHGCpF3rEzfZxBYqz-141" target="v-lnHGCpF3rEzfZxBYqz-146">
          <mxGeometry relative="1" as="geometry">
            <mxPoint x="590" y="720" as="targetPoint" />
            <Array as="points">
              <mxPoint x="590" y="790" />
              <mxPoint x="590" y="390" />
              <mxPoint x="693" y="390" />
            </Array>
          </mxGeometry>
        </mxCell>
        <mxCell id="v-lnHGCpF3rEzfZxBYqz-141" value="测试上报" style="rounded=0;whiteSpace=wrap;html=1;" vertex="1" parent="1">
          <mxGeometry x="87.5" y="770" width="165" height="40" as="geometry" />
        </mxCell>
        <mxCell id="v-lnHGCpF3rEzfZxBYqz-149" style="edgeStyle=orthogonalEdgeStyle;rounded=0;orthogonalLoop=1;jettySize=auto;html=1;" edge="1" parent="1" source="v-lnHGCpF3rEzfZxBYqz-146" target="v-lnHGCpF3rEzfZxBYqz-100">
          <mxGeometry relative="1" as="geometry">
            <Array as="points">
              <mxPoint x="715" y="480" />
              <mxPoint x="670" y="480" />
            </Array>
          </mxGeometry>
        </mxCell>
        <mxCell id="v-lnHGCpF3rEzfZxBYqz-146" value="日志监控" style="rounded=0;whiteSpace=wrap;html=1;" vertex="1" parent="1">
          <mxGeometry x="670" y="320" width="90" height="40" as="geometry" />
        </mxCell>
        <mxCell id="v-lnHGCpF3rEzfZxBYqz-152" style="edgeStyle=orthogonalEdgeStyle;rounded=0;orthogonalLoop=1;jettySize=auto;html=1;entryX=0;entryY=0.5;entryDx=0;entryDy=0;" edge="1" parent="1" source="v-lnHGCpF3rEzfZxBYqz-151" target="v-lnHGCpF3rEzfZxBYqz-113">
          <mxGeometry relative="1" as="geometry">
            <mxPoint x="410" y="300" as="targetPoint" />
            <Array as="points">
              <mxPoint x="350" y="330" />
              <mxPoint x="350" y="240" />
            </Array>
          </mxGeometry>
        </mxCell>
        <mxCell id="v-lnHGCpF3rEzfZxBYqz-151" value="测试管理" style="rounded=0;whiteSpace=wrap;html=1;" vertex="1" parent="1">
          <mxGeometry x="120" y="310" width="90" height="40" as="geometry" />
        </mxCell>
      </root>
    </mxGraphModel>
  </diagram>
</mxfile>
